<?xml version="1.0" standalone="no"?>
<!DOCTYPE svg PUBLIC "-//W3C//DTD SVG 20010904//EN"
 "http://www.w3.org/TR/2001/REC-SVG-20010904/DTD/svg10.dtd">
<svg version="1.0" xmlns="http://www.w3.org/2000/svg"
 width="600.000000pt" height="600.000000pt" viewBox="0 0 600.000000 600.000000"
 preserveAspectRatio="xMidYMid meet">
<metadata>
Created by potrace 1.11, written by Peter Selinger 2001-2013
</metadata>
<g transform="translate(0.000000,600.000000) scale(0.100000,-0.100000)"
fill="#000000" stroke="none">
<path d="M2910 5933 c-630 -35 -1192 -465 -1395 -1068 -56 -168 -80 -330 -84
-572 l-2 -143 315 0 c246 0 316 3 316 13 1 6 2 82 4 167 4 163 13 223 47 329
88 276 323 511 599 599 211 67 439 61 643 -19 157 -62 335 -207 431 -353 70
-106 109 -196 142 -331 5 -16 10 -257 11 -535 l4 -506 -125 62 c-466 227
-1005 252 -1481 67 -177 -69 -363 -177 -508 -295 -355 -290 -596 -720 -661
-1178 -21 -152 -15 -440 13 -588 72 -380 258 -727 530 -991 301 -291 685 -471
1101 -517 149 -17 426 -2 575 30 210 46 451 146 622 259 457 301 747 759 827
1307 16 104 19 379 6 450 -4 25 -11 68 -14 95 -21 175 -116 438 -229 636 l-25
44 0 785 c0 432 -3 812 -6 845 -80 704 -600 1263 -1289 1385 -105 18 -264 28
-367 23z m324 -2819 c374 -76 682 -310 856 -649 41 -80 83 -192 94 -250 3 -11
9 -40 15 -65 18 -75 25 -296 12 -392 -60 -448 -369 -834 -789 -988 -131 -48
-219 -64 -402 -75 -169 -9 -419 50 -590 141 -498 266 -740 805 -616 1374 13
58 51 161 86 235 179 372 561 645 954 682 33 3 62 7 64 8 10 9 248 -7 316 -21z"/>
<path d="M2894 2416 c-398 -91 -541 -581 -253 -869 106 -107 236 -158 383
-153 382 14 616 417 439 757 -105 203 -347 315 -569 265z"/>
</g>
</svg>
